<?xml version="1.0" standalone="no"?>
<svg version="1.0" xmlns="http://www.w3.org/2000/svg" viewBox="0 0 3000.000000 500.000000"
 preserveAspectRatio="xMidYMid meet">

<g transform="translate(0.000000,1800.000000) scale(0.100000,-0.100000)"
fill="#000000" stroke="none">
<path d="M3447 17693 c-24 -38 -95 -138 -159 -223 -63 -85 -160 -221 -216
-301 l-102 -146 -4 -959 c-3 -527 -10 -1047 -15 -1154 -14 -256 -12 -530 4
-600 7 -30 16 -80 20 -111 7 -64 26 -87 90 -115 58 -26 304 -32 389 -11 33 9
88 18 120 21 38 3 70 12 87 25 16 12 34 21 42 21 7 0 27 15 44 33 38 39 173
253 227 359 34 68 37 80 28 107 -8 22 -8 46 0 83 7 35 8 70 2 103 -6 34 -5 79
3 140 7 50 10 97 7 106 -2 9 -1 26 3 37 8 21 10 20 47 -18 21 -22 42 -40 47
-40 4 0 31 -42 60 -92 110 -194 196 -301 251 -314 20 -4 34 -17 45 -40 26 -54
48 -45 144 54 103 105 170 189 279 347 45 66 93 132 105 147 13 15 25 33 28
40 11 27 28 -17 22 -58 -3 -24 0 -53 9 -75 39 -95 170 -811 156 -858 -7 -26
-5 -36 15 -60 l24 -28 253 -6 253 -5 60 25 c56 24 63 30 100 96 22 39 75 121
119 182 43 60 83 126 88 145 6 19 21 49 34 67 30 40 30 50 0 78 -31 29 -55
110 -57 198 -2 62 0 71 31 113 38 53 33 79 -16 79 l-29 1 -12 249 c-6 138 -16
405 -23 595 -6 190 -14 372 -16 405 -3 33 -7 123 -8 200 -2 77 -11 199 -20
270 -9 72 -25 244 -36 384 -10 140 -24 257 -29 261 -6 3 -19 35 -30 71 -19 59
-42 92 -79 113 -7 4 -30 -7 -55 -28 -24 -19 -52 -39 -64 -43 -11 -4 -104 -83
-204 -174 -226 -203 -313 -277 -345 -291 -51 -23 -264 -289 -439 -547 l-98
-143 -24 28 c-13 16 -37 56 -54 89 -46 88 -96 161 -155 224 -28 31 -81 106
-117 166 -93 155 -111 181 -212 296 -129 146 -203 248 -198 269 3 12 -17 35
-69 79 -41 33 -89 79 -107 102 -52 64 -107 99 -157 99 -42 0 -44 -1 -87 -67z
m205 -135 c32 -35 58 -68 58 -74 0 -24 -121 -106 -136 -92 -5 6 -8 77 -6 156
1 49 6 72 14 72 7 0 38 -28 70 -62z m2192 -136 c3 -42 27 -320 53 -617 41
-481 49 -638 41 -795 -2 -25 8 -125 22 -223 24 -177 24 -179 5 -189 -30 -17
-207 -192 -293 -290 -42 -49 -79 -88 -82 -88 -3 0 -12 82 -19 183 -23 332 -48
574 -67 638 -3 10 15 46 41 83 37 55 44 70 35 86 -6 11 -15 20 -21 20 -5 0
-38 -28 -73 -62 -64 -63 -199 -260 -348 -508 -38 -63 -80 -126 -94 -138 -27
-26 -39 -51 -59 -124 -12 -43 -130 -252 -174 -308 -26 -32 -46 -15 -55 45 -5
32 -15 51 -36 67 -19 15 -46 61 -78 134 -62 140 -151 302 -260 473 -55 87 -81
136 -73 139 7 2 57 44 111 92 54 49 117 101 139 115 l40 27 86 -86 c86 -85 88
-86 137 -86 l49 0 26 58 c14 31 52 85 85 120 85 92 148 186 234 351 110 210
184 336 294 501 53 80 127 201 164 270 37 70 84 148 103 175 32 43 37 47 48
32 7 -10 15 -52 19 -95z m-2362 53 c4 -20 0 -26 -25 -35 -17 -5 -50 -31 -75
-58 -24 -26 -43 -42 -41 -35 5 15 122 153 130 153 4 0 9 -11 11 -25z m340
-122 c30 -32 74 -85 98 -117 l45 -59 -38 -31 c-55 -45 -360 -256 -364 -252 -2
1 0 83 4 182 l6 179 56 59 c47 49 109 94 132 96 3 0 31 -26 61 -57z m1683
-150 c-12 -17 -20 -23 -23 -15 -4 14 28 56 36 47 3 -2 -3 -17 -13 -32z m-1478
-118 c12 -8 38 -45 59 -82 106 -193 237 -398 316 -497 78 -98 158 -226 158
-253 0 -6 -26 -31 -57 -56 -32 -25 -98 -81 -148 -126 -59 -53 -93 -77 -100
-71 -6 5 -36 50 -65 101 -30 50 -67 100 -83 111 -34 25 -87 104 -87 131 0 15
-6 18 -32 15 -52 -5 -64 -41 -42 -128 16 -62 17 -77 5 -137 -7 -37 -16 -131
-18 -208 l-5 -140 -72 -50 c-39 -27 -131 -110 -205 -183 -73 -73 -135 -131
-136 -130 -1 2 2 143 7 313 5 171 8 316 8 323 -1 19 -1 26 10 397 l10 350 32
28 c70 60 401 307 412 307 6 0 21 -7 33 -15z m-788 -147 c-7 -12 -37 -63 -67
-111 -38 -63 -57 -86 -65 -78 -15 15 -1 41 73 139 59 79 87 102 59 50z m221
-423 c0 -26 -41 -77 -47 -59 -5 15 26 84 37 84 6 0 10 -11 10 -25z m-340 -193
c0 -5 -9 -17 -20 -27 -16 -14 -20 -15 -20 -4 0 16 19 39 32 39 4 0 8 -4 8 -8z
m320 -73 c-17 -63 -43 -109 -84 -148 -20 -19 -36 -32 -36 -28 0 11 68 145 97
190 30 48 38 43 23 -14z m-280 -109 c-39 -77 -75 -140 -80 -140 -15 0 -20 32
-10 71 6 21 15 39 19 39 5 0 38 38 72 85 35 47 65 85 66 85 2 0 -28 -63 -67
-140z m127 -162 c-3 -8 -6 -5 -6 6 -1 11 2 17 5 13 3 -3 4 -12 1 -19z m143
-63 c0 -42 -11 -58 -25 -35 -8 13 5 80 16 80 5 0 9 -20 9 -45z m1970 -85 c0
-33 -3 -40 -20 -40 -24 0 -26 26 -4 58 21 30 24 28 24 -18z m-1981 -142 c-35
-91 -65 -152 -88 -178 -21 -25 -21 -24 3 40 49 134 77 190 96 190 5 0 0 -24
-11 -52z m-200 20 c-36 -70 -142 -238 -149 -238 -6 0 -6 10 0 25 5 14 6 34 2
45 -6 17 7 36 73 105 44 45 81 83 83 84 1 1 -3 -9 -9 -21z m710 -111 c7 -136
5 -172 -14 -211 -16 -33 -17 -45 -7 -82 15 -55 15 -134 1 -171 -13 -35 -23
-46 -240 -254 l-176 -168 4 117 c2 64 3 183 2 265 l-1 147 118 128 c132 141
293 302 303 302 3 0 8 -33 10 -73z m331 19 c0 -16 -50 -79 -57 -72 -6 5 14 45
35 69 18 21 22 21 22 3z m1739 -321 c6 -60 11 -153 11 -206 l0 -96 -89 -109
c-119 -147 -169 -196 -216 -213 -37 -13 -40 -13 -60 11 -19 22 -20 32 -14 99
6 58 3 89 -12 144 -29 107 -26 150 18 215 47 71 150 194 255 305 l83 88 6 -64
c4 -35 12 -113 18 -174z m-2805 108 c-21 -49 -118 -229 -130 -242 -2 -2 -7 -2
-10 2 -6 5 153 297 162 297 2 0 -8 -26 -22 -57z m1248 -5 c-7 -7 -12 -8 -12
-2 0 14 12 26 19 19 2 -3 -1 -11 -7 -17z m-292 -87 c-11 -23 -25 -41 -31 -41
-7 0 -5 9 5 23 9 12 21 33 26 46 6 13 13 21 16 18 3 -3 -4 -23 -16 -46z m380
-29 c-1 -13 -30 -46 -35 -40 -9 8 17 58 26 52 5 -3 9 -8 9 -12z m803 -87 c-3
-9 -8 -14 -10 -11 -3 3 -2 9 2 15 9 16 15 13 8 -4z m-69 -144 c-26 -50 -52
-91 -57 -91 -5 0 5 24 23 53 17 28 41 71 52 94 12 24 24 41 26 38 2 -2 -17
-44 -44 -94z m-564 -54 c0 -15 -52 -91 -70 -102 -24 -15 -23 8 3 60 19 40 32
55 47 55 11 0 20 -6 20 -13z m-798 -132 c-6 -30 -5 -46 6 -62 10 -17 12 -38 7
-84 l-7 -61 -149 4 c-82 2 -151 7 -155 11 -9 9 28 51 175 201 l126 130 3 -50
c1 -27 -1 -67 -6 -89z m588 -9 c0 -3 -4 -8 -10 -11 -5 -3 -10 -1 -10 4 0 6 5
11 10 11 6 0 10 -2 10 -4z m1540 -56 c7 -32 10 -66 7 -74 -8 -20 -89 -43 -132
-38 -29 3 -33 7 -26 21 16 28 121 151 130 151 4 0 14 -27 21 -60z m-2950 0 c0
-5 -5 -10 -11 -10 -5 0 -7 5 -4 10 3 6 8 10 11 10 2 0 4 -4 4 -10z m778 -255
c-42 -29 -89 -35 -68 -10 12 14 59 32 90 34 8 1 -2 -10 -22 -24z m-758 -163
c0 -20 -27 -62 -40 -62 -5 0 -8 6 -6 13 3 6 7 24 10 40 7 30 36 38 36 9z
m2376 -36 c-14 -25 -26 -58 -26 -75 0 -24 -4 -31 -20 -31 -20 0 -19 2 6 53 31
59 54 97 61 97 3 0 -7 -20 -21 -44z m-176 24 c0 -5 -2 -10 -4 -10 -3 0 -8 5
-11 10 -3 6 -1 10 4 10 6 0 11 -4 11 -10z m-2010 -14 c0 -12 -72 -121 -80
-120 -26 3 -30 5 -30 14 0 13 89 110 101 110 5 0 9 -2 9 -4z m266 -69 c-11
-29 -25 -52 -31 -52 -5 0 -8 7 -7 15 4 16 50 90 56 90 2 0 -6 -24 -18 -53z
m-176 -27 c-22 -31 -40 -46 -40 -34 0 8 51 64 58 64 2 0 -6 -13 -18 -30z"/>
<path d="M8177 17672 c-14 -15 -43 -65 -65 -112 -22 -47 -63 -123 -91 -169
-28 -47 -55 -101 -61 -120 -15 -61 -22 -194 -24 -490 l-1 -285 -30 -8 c-16 -4
-237 -10 -490 -13 -294 -4 -470 -9 -487 -16 -20 -8 -41 -36 -77 -103 -27 -51
-76 -135 -110 -188 -61 -96 -69 -118 -52 -160 5 -13 12 -36 16 -51 3 -16 17
-40 30 -53 l24 -24 556 0 c377 0 563 -3 576 -11 18 -9 20 -18 15 -72 -3 -34
-8 -150 -11 -257 -3 -107 -10 -319 -15 -470 -5 -151 -10 -427 -10 -612 l0
-337 35 -27 c29 -22 49 -28 108 -32 40 -2 98 1 129 7 102 22 127 48 228 251
l48 95 7 340 c5 187 9 408 10 490 4 221 16 521 23 593 l7 64 122 5 121 5 -4
-224 c-2 -122 -7 -288 -10 -368 -3 -80 -7 -196 -9 -258 -2 -63 -8 -186 -14
-275 -13 -206 -14 -602 -1 -626 19 -37 67 -46 230 -45 85 1 167 7 182 12 19 8
39 35 72 99 25 49 69 115 97 146 49 56 51 59 34 77 -10 11 -22 18 -29 17 -6
-1 -10 7 -8 18 2 11 7 121 12 245 15 344 34 494 67 521 8 7 41 11 80 10 153
-5 201 -74 224 -325 10 -107 7 -454 -7 -761 -5 -115 -7 -114 193 -108 92 3
176 10 185 14 27 15 188 310 188 347 0 10 -4 22 -8 27 -5 6 -5 109 0 230 17
425 15 538 -12 676 -44 231 -181 401 -369 460 -134 42 -255 33 -421 -30 l-47
-18 -7 65 c-4 47 -2 68 7 74 6 4 64 8 127 9 63 0 124 3 135 5 11 3 175 7 365
9 190 2 415 7 500 10 85 3 369 10 630 15 668 13 879 20 922 31 49 13 123 86
216 212 l72 97 -6 81 c-11 130 4 123 -291 127 -136 2 -349 2 -473 0 -124 -2
-598 -2 -1055 -1 -456 2 -837 3 -845 3 -8 -1 -77 -3 -154 -6 l-138 -6 8 168
c5 93 7 238 5 322 l-3 154 31 31 c40 42 30 64 -25 51 -22 -4 -100 -8 -174 -9
-108 0 -141 -3 -160 -16 -14 -9 -80 -104 -147 -211 l-123 -195 0 -115 c0 -64
-3 -130 -6 -147 l-7 -32 -131 3 -131 3 3 430 c3 394 -6 695 -23 737 -8 20 -79
27 -153 15 -36 -6 -62 -6 -77 1 -19 9 -27 6 -48 -16z m148 -70 c-6 -4 -31 -25
-57 -46 l-48 -37 0 26 c0 49 16 65 67 65 26 0 43 -4 38 -8z m73 -135 c-5 -10
-7 -35 -3 -56 6 -38 6 -38 -87 -115 -83 -69 -93 -75 -96 -55 -2 12 4 42 13 66
14 37 15 49 5 68 -25 47 -5 85 83 156 l82 66 6 -56 c4 -31 3 -64 -3 -74z m-3
-454 c-3 -164 -7 -352 -10 -417 l-4 -120 31 -28 c23 -21 37 -26 52 -21 12 4
148 6 304 4 269 -3 282 -2 283 15 1 11 3 54 4 96 4 92 9 101 127 213 l83 80 3
-110 c1 -60 -1 -151 -5 -200 l-8 -90 330 1 c181 1 350 -2 375 -5 l45 -6 -135
-74 -135 -74 -102 -3 c-56 -2 -105 -4 -110 -6 -4 -1 -23 2 -41 6 -20 5 -38 4
-45 -3 -7 -5 -51 -11 -97 -13 l-85 -3 -3 -225 c-3 -263 6 -239 -137 -368 l-90
-82 -3 113 c-1 61 1 195 5 296 5 101 6 204 4 227 l-3 44 -112 -1 c-160 0 -498
-16 -516 -23 -12 -5 -14 -25 -12 -107 3 -83 1 -103 -13 -119 -18 -20 -15 -47
12 -89 11 -16 13 -35 8 -60 -4 -20 -10 -203 -14 -407 l-6 -371 -25 -31 c-14
-17 -57 -66 -96 -110 l-71 -79 -7 141 c-4 77 -5 204 -2 281 3 77 8 246 11 375
10 386 14 466 24 492 11 29 109 109 237 194 46 31 84 60 84 64 0 21 -24 20
-58 -3 -20 -13 -95 -61 -165 -107 l-128 -83 -232 3 c-128 2 -272 4 -322 4 -49
1 -128 2 -175 4 l-85 3 48 44 c26 24 47 48 47 54 0 22 -36 10 -85 -29 -81 -65
-106 -73 -245 -78 l-125 -4 20 22 c37 42 67 71 129 123 l61 52 455 0 454 0 6
-25 c12 -51 34 -27 68 72 32 92 33 98 18 130 -11 23 -14 52 -11 98 2 36 7 153
10 260 3 107 7 200 10 207 3 10 165 153 173 153 1 0 0 -134 -3 -297z m789 96
c-24 -26 -103 -73 -110 -66 -3 3 -3 24 1 46 l7 41 60 0 61 0 -19 -21z m101
-38 c4 -18 1 -41 -8 -58 -8 -16 -12 -44 -10 -64 5 -34 0 -40 -92 -127 -94 -89
-124 -109 -111 -76 3 9 6 53 6 99 0 81 1 86 33 121 30 36 154 134 169 134 3 0
9 -13 13 -29z m-1152 -226 c-3 -9 -8 -14 -10 -11 -3 3 -2 9 2 15 9 16 15 13 8
-4z m2652 -404 l40 -7 -25 -13 c-14 -8 -70 -42 -125 -76 l-100 -63 -285 -6
c-157 -3 -312 -8 -346 -12 -36 -4 -69 -2 -79 4 -16 8 -5 17 72 55 49 25 102
60 116 76 l26 31 148 1 c81 1 193 5 248 9 138 9 262 10 310 1z m990 0 c-6 -5
-66 -46 -134 -90 -122 -80 -125 -82 -170 -75 -25 4 -211 8 -414 8 -305 1 -364
3 -350 14 10 7 68 42 128 77 l110 63 405 2 c222 0 406 3 409 6 2 2 9 4 15 4 6
0 6 -3 1 -9z m425 1 c0 -7 -44 -41 -128 -99 l-83 -57 -153 -4 c-139 -4 -154
-3 -160 13 -4 12 0 22 12 31 53 37 122 96 122 103 0 5 8 12 18 15 19 5 372 3
372 -2z m-5073 -36 c2 -2 -131 -111 -140 -115 -5 -2 -6 5 -3 16 3 10 2 33 -3
51 -11 35 -6 41 43 52 24 5 93 3 103 -4z m5075 -98 c-13 -13 -102 -23 -102
-12 0 5 24 26 53 47 l52 38 3 -32 c2 -17 -1 -36 -6 -41z m-2431 -562 c51 -3
91 -28 181 -115 98 -93 168 -348 168 -608 l0 -92 -59 -73 c-32 -40 -69 -82
-81 -93 l-23 -20 7 105 c4 58 9 146 12 195 4 50 10 94 15 100 5 5 9 25 9 45
-1 118 -112 310 -209 360 -53 27 -261 22 -346 -9 -73 -26 -120 -58 -137 -91
-6 -14 -20 -34 -30 -45 -48 -56 -77 -219 -83 -465 -9 -350 -13 -363 -118 -441
-39 -29 -62 -29 -84 -1 -11 13 4 32 88 119 55 58 98 110 96 116 -9 27 -37 14
-110 -54 l-77 -71 0 39 c0 21 5 101 10 178 9 135 11 224 8 330 -4 106 9 321
19 340 19 33 211 217 221 211 5 -3 7 -16 5 -30 -5 -24 11 -66 26 -66 4 0 43
23 85 51 43 29 103 63 134 76 51 21 66 23 142 17 47 -3 106 -7 131 -8z m-811
-131 c0 -8 -4 -15 -10 -15 -5 0 -7 7 -4 15 4 8 8 15 10 15 2 0 4 -7 4 -15z
m-858 -387 c-7 -7 -12 -8 -12 -2 0 14 12 26 19 19 2 -3 -1 -11 -7 -17z m252
-385 l-7 -149 -90 -93 -90 -93 7 109 c4 59 10 122 14 140 6 26 161 245 170
238 1 -1 -1 -69 -4 -152z m1502 129 c-18 -16 -18 -16 -6 6 6 13 14 21 18 18 3
-4 -2 -14 -12 -24z m258 -239 c-4 -71 -13 -139 -20 -154 -20 -40 -101 -110
-119 -103 -27 11 -34 37 -26 101 5 42 17 77 38 112 28 45 124 171 131 171 1 0
-1 -57 -4 -127z m-1311 12 c-3 -9 -8 -14 -10 -11 -3 3 -2 9 2 15 9 16 15 13 8
-4z m958 -18 c-10 -9 -11 -8 -5 6 3 10 9 15 12 12 3 -3 0 -11 -7 -18z m-1411
-160 c0 -62 0 -63 -27 -62 -26 0 -53 15 -53 30 0 6 72 94 78 95 1 0 2 -28 2
-63z m817 -82 c-4 -8 -11 -15 -17 -15 -7 0 -7 6 0 21 13 23 26 19 17 -6z m939
-2 c-10 -10 -19 5 -10 18 6 11 8 11 12 0 2 -7 1 -15 -2 -18z"/>
<path d="M15560 17613 c-11 -16 -35 -49 -53 -75 -18 -26 -95 -134 -173 -240
-77 -106 -173 -240 -213 -298 l-72 -105 1 -180 c1 -99 1 -187 2 -195 0 -8 -1
-280 -3 -605 -2 -324 -2 -628 -1 -675 2 -47 -2 -161 -9 -255 -17 -238 -17
-750 0 -840 25 -131 32 -148 77 -172 70 -39 263 -55 379 -32 28 6 83 14 124
20 82 10 184 53 217 90 33 38 142 215 201 326 52 97 54 105 43 138 -6 19 -8
40 -3 47 4 7 9 85 11 173 1 88 4 176 6 195 2 19 4 43 5 54 1 14 13 7 58 -34
39 -36 76 -86 121 -163 103 -178 163 -251 218 -266 19 -5 36 -20 49 -44 12
-22 28 -37 38 -37 54 0 310 309 497 600 14 22 28 40 32 40 10 0 20 -57 13 -79
-3 -10 5 -56 19 -102 52 -180 157 -770 147 -820 -6 -26 -3 -41 11 -61 19 -28
21 -28 131 -29 62 0 177 -4 257 -9 l145 -8 63 29 c50 24 66 38 83 70 29 57 83
141 154 239 34 47 65 99 69 115 4 17 18 47 32 67 30 47 30 50 -5 85 -32 33
-49 98 -52 198 -2 53 2 65 30 105 38 55 34 80 -13 80 l-32 0 -17 423 c-9 232
-20 499 -23 592 -3 94 -8 199 -10 235 -3 36 -7 128 -9 205 -2 77 -10 199 -19
270 -9 72 -25 241 -35 378 -11 139 -24 253 -30 261 -6 7 -18 35 -26 62 -35
115 -83 149 -138 96 -18 -16 -48 -38 -67 -47 -19 -10 -93 -72 -164 -138 -167
-154 -326 -290 -376 -322 -73 -46 -263 -281 -445 -550 -49 -71 -90 -132 -92
-134 -8 -11 -55 48 -89 113 -50 96 -104 173 -154 221 -22 22 -57 69 -77 105
-74 132 -166 264 -247 354 -117 129 -205 251 -199 274 3 13 -13 31 -59 68 -34
27 -90 78 -123 113 -96 101 -165 126 -205 74z m168 -177 c34 -35 62 -67 62
-71 0 -19 -25 -47 -64 -70 -55 -32 -73 -32 -78 3 -6 42 3 202 11 202 5 0 36
-29 69 -64z m2187 -69 c3 -18 23 -243 45 -502 22 -258 47 -561 57 -671 14
-169 15 -210 4 -255 -11 -47 -10 -73 8 -194 11 -77 23 -167 26 -200 l7 -60
-65 -53 c-54 -45 -297 -300 -319 -335 -4 -6 -9 -9 -11 -7 -2 3 -9 86 -16 185
-17 264 -41 511 -56 585 -12 59 -11 68 6 101 10 20 30 50 44 67 27 32 28 65 1
75 -7 3 -44 -26 -84 -66 -67 -69 -219 -292 -362 -532 -30 -49 -66 -102 -81
-116 -17 -16 -35 -52 -49 -96 -32 -107 -176 -349 -202 -341 -15 5 -23 23 -38
76 -7 29 -19 46 -35 54 -15 7 -32 31 -46 67 -58 146 -216 434 -332 605 -38 56
-39 61 -22 70 10 6 59 48 109 94 50 46 110 96 134 112 l42 28 88 -89 c82 -83
90 -89 128 -89 46 0 64 15 88 73 8 21 43 68 76 105 85 93 168 217 233 349 81
161 197 359 297 508 48 72 116 182 150 245 85 155 148 252 160 245 5 -3 12
-20 15 -38z m-2355 -17 c0 -23 -5 -31 -25 -36 -13 -3 -43 -26 -66 -51 -22 -24
-43 -43 -45 -40 -4 4 123 157 131 157 3 0 5 -13 5 -30z m351 -132 c81 -94 129
-155 129 -165 0 -14 -375 -283 -394 -283 -3 0 -3 80 0 178 l6 177 57 59 c60
62 106 96 132 96 9 0 41 -28 70 -62z m1678 -133 c-12 -19 -25 -32 -30 -29 -10
6 3 29 30 52 22 18 22 15 0 -23z m-1467 -142 c9 -10 57 -89 107 -176 121 -209
194 -321 249 -382 55 -61 125 -167 148 -224 9 -23 15 -43 13 -44 -16 -10 -139
-115 -205 -174 -55 -49 -87 -71 -97 -67 -9 3 -35 40 -58 82 -23 41 -70 106
-105 143 -39 41 -67 81 -71 99 -7 36 -17 44 -47 36 -40 -10 -49 -49 -30 -132
16 -69 16 -79 1 -167 -9 -51 -17 -143 -17 -203 l0 -111 -87 -66 c-91 -68 -179
-150 -272 -250 -29 -32 -54 -57 -56 -55 -1 2 2 143 7 313 4 171 8 316 8 323
-1 20 -1 43 9 337 5 154 10 312 10 350 l1 70 58 44 c390 303 391 303 434 254z
m-803 -125 c-37 -75 -116 -198 -126 -198 -22 0 -14 26 23 81 40 60 103 139
110 139 3 0 0 -10 -7 -22z m221 -432 c0 -24 -23 -56 -41 -56 -12 0 -12 5 5 45
17 40 36 46 36 11z m-357 -212 c-9 -15 -19 -21 -21 -15 -4 13 16 41 29 41 5 0
2 -12 -8 -26z m341 -36 c-9 -53 -50 -131 -89 -168 -19 -18 -35 -28 -35 -21 0
16 113 221 122 221 4 0 5 -15 2 -32z m-284 -125 c-81 -155 -77 -149 -87 -139
-15 15 -4 90 15 106 11 8 45 50 77 93 32 42 60 77 62 77 3 0 -28 -62 -67 -137z
m127 -165 c-3 -7 -5 -2 -5 12 0 14 2 19 5 13 2 -7 2 -19 0 -25z m143 -58 c0
-41 -3 -48 -16 -43 -12 4 -14 14 -9 42 13 68 25 69 25 1z m1970 -84 c0 -37
-15 -55 -32 -38 -8 8 -7 20 2 41 17 41 30 39 30 -3z m-2163 -93 c-35 -68 -163
-271 -168 -267 -5 3 -4 16 1 30 7 17 6 32 -1 47 -9 16 -9 22 1 25 22 8 89 73
126 123 31 42 53 65 41 42z m182 -50 c-14 -46 -72 -161 -93 -188 -22 -27 27
111 67 190 32 63 47 62 26 -2z m507 -70 c1 -27 3 -79 5 -118 3 -55 0 -78 -16
-110 -18 -36 -19 -46 -8 -80 15 -52 15 -153 0 -187 -10 -23 -397 -408 -409
-408 -2 0 -3 51 -1 113 2 61 3 180 2 262 l0 150 153 165 c146 156 252 260 267
260 3 0 7 -21 7 -47z m307 -48 c-37 -47 -42 -28 -6 26 19 30 29 38 31 26 2 -9
-9 -32 -25 -52z m1766 -280 c6 -60 11 -152 11 -204 l0 -93 -67 -81 c-38 -44
-88 -108 -113 -141 -34 -46 -59 -68 -104 -90 l-59 -29 -22 25 c-19 22 -20 32
-14 104 6 64 3 91 -12 143 -30 100 -26 147 20 217 50 78 80 114 219 268 l117
129 7 -69 c3 -38 11 -118 17 -179z m-2848 28 c-64 -122 -88 -160 -95 -152 -3
3 29 67 71 142 41 76 78 136 80 133 3 -2 -23 -58 -56 -123z m1295 81 c-4 -9
-9 -15 -11 -12 -3 3 -3 13 1 22 4 9 9 15 11 12 3 -3 3 -13 -1 -22z m-297 -93
c-12 -23 -27 -41 -32 -41 -10 0 -9 3 22 53 31 50 39 40 10 -12z m371 -41 c-10
-18 -30 -36 -30 -26 0 19 22 56 30 51 7 -4 7 -12 0 -25z m811 -77 c-12 -20
-14 -14 -5 12 4 9 9 14 11 11 3 -2 0 -13 -6 -23z m-76 -152 c-19 -38 -40 -73
-46 -77 -6 -4 -10 -3 -8 2 10 23 81 144 85 144 2 0 -11 -31 -31 -69z m-551
-30 c7 -10 -71 -121 -85 -121 -15 0 -11 16 18 75 25 52 52 70 67 46z m-795
-63 c-1 -29 -4 -66 -8 -83 -4 -18 -1 -41 7 -57 12 -25 12 -132 -1 -145 -9 -9
-307 8 -307 18 0 11 291 319 302 319 4 0 7 -24 7 -52z m574 -93 c-3 -9 -8 -14
-10 -11 -3 3 -2 9 2 15 9 16 15 13 8 -4z m1547 -54 c7 -33 10 -66 7 -74 -8
-21 -97 -40 -135 -30 l-32 8 66 83 c36 45 69 80 73 77 5 -2 14 -31 21 -64z
m-2950 -1 c0 -5 -4 -10 -10 -10 -5 0 -10 5 -10 10 0 6 5 10 10 10 6 0 10 -4
10 -10z m775 -255 c-35 -29 -87 -36 -64 -9 16 19 46 32 74 33 17 1 16 -3 -10
-24z m-755 -153 c0 -20 -27 -62 -39 -62 -10 0 -2 51 12 68 14 17 27 15 27 -6z
m2200 -23 c0 -6 -4 -7 -10 -4 -5 3 -10 11 -10 16 0 6 5 7 10 4 6 -3 10 -11 10
-16z m170 -29 c-11 -21 -20 -53 -20 -70 0 -20 -5 -30 -15 -30 -23 0 -18 25 16
85 36 63 49 74 19 15z m-2200 -12 c-12 -18 -28 -47 -35 -65 -11 -24 -19 -30
-35 -26 -11 3 -20 8 -20 10 0 14 44 75 67 93 38 30 48 24 23 -12z m295 -14
c-14 -26 -25 -55 -25 -65 0 -11 -7 -19 -15 -19 -8 0 -15 2 -15 5 0 16 67 125
77 125 1 0 -9 -21 -22 -46z m-187 -54 c-12 -16 -26 -30 -32 -30 -5 0 3 14 19
30 16 17 30 30 32 30 2 0 -6 -13 -19 -30z"/>
<path d="M20329 17544 c-10 -11 -40 -63 -65 -115 -25 -52 -67 -130 -94 -174
-34 -56 -52 -99 -60 -144 -7 -37 -13 -202 -14 -398 -2 -183 -6 -336 -9 -340
-17 -17 -137 -22 -539 -22 -309 -1 -445 -4 -462 -13 -17 -7 -42 -41 -72 -97
-26 -47 -78 -135 -116 -196 l-70 -110 17 -55 c28 -90 33 -98 63 -114 24 -12
113 -14 582 -14 481 1 554 -1 564 -14 8 -10 9 -68 4 -189 -23 -575 -29 -774
-34 -1124 -5 -272 -3 -398 5 -417 24 -61 122 -88 246 -68 112 18 135 36 204
164 104 191 99 170 100 426 0 124 3 295 6 380 3 85 7 254 10 375 5 237 13 410
21 462 4 30 8 33 37 32 126 -3 940 12 1102 21 110 5 306 11 435 11 129 1 264
2 300 3 79 2 574 14 910 22 467 10 755 22 783 33 40 15 130 110 205 213 l62
86 0 82 c0 71 -3 84 -23 104 -23 23 -25 23 -377 29 -195 4 -454 3 -575 -2
-121 -5 -555 -6 -965 -2 -410 3 -765 3 -789 -1 -56 -10 -1079 -4 -1089 6 -4 4
-7 62 -6 129 7 796 2 1022 -20 1044 -2 3 -61 6 -131 6 -116 2 -128 0 -146 -19z
m161 -58 c0 -4 -107 -86 -113 -86 -7 0 6 65 15 78 9 10 98 18 98 8z m70 -54
c0 -22 -3 -74 -7 -116 l-6 -77 -86 -71 -86 -71 -3 28 c-2 15 4 46 14 67 13 29
15 41 6 50 -7 7 -12 29 -12 49 0 35 6 43 83 108 45 39 85 70 90 71 4 0 7 -17
7 -38z m-13 -624 c-4 -205 -9 -389 -13 -408 -5 -28 -1 -41 18 -63 l24 -27 254
-6 c337 -8 353 -8 585 0 l200 8 -73 -41 c-40 -22 -108 -63 -151 -91 l-79 -51
-156 2 c-86 1 -159 5 -162 10 -9 15 -46 10 -67 -8 -18 -17 -19 -17 -28 0 -12
21 -39 22 -65 2 -14 -11 -48 -14 -131 -15 -61 0 -123 -4 -136 -9 -25 -10 -25
-11 -20 -108 5 -83 3 -100 -11 -112 -20 -17 -20 -43 0 -83 14 -27 15 -48 8
-137 -5 -58 -9 -176 -9 -261 -1 -85 -2 -224 -3 -308 l-2 -153 -63 -67 c-34
-37 -79 -87 -100 -112 l-39 -45 2 80 c0 44 1 188 1 319 0 132 2 242 3 245 2 3
7 136 10 295 9 350 11 368 63 412 45 40 218 165 247 179 23 12 34 45 16 45
-13 0 -47 -21 -230 -141 -97 -64 -120 -75 -139 -67 -13 4 -69 7 -125 6 -217
-5 -646 3 -646 11 0 6 20 26 45 47 43 35 52 53 28 61 -6 2 -43 -21 -83 -50
-62 -48 -81 -56 -145 -67 -46 -8 -98 -10 -140 -5 l-67 7 43 45 c24 25 69 67
101 93 l56 48 456 1 456 0 6 -24 c15 -59 47 -16 81 108 14 49 15 64 4 90 -16
41 -16 93 -1 252 7 72 10 167 7 213 -3 46 -3 90 0 99 5 13 162 153 172 153 2
0 1 -168 -2 -372z m-266 -101 c-10 -9 -11 -8 -5 6 3 10 9 15 12 12 3 -3 0 -11
-7 -18z m4076 -392 c7 -5 -190 -141 -214 -148 -16 -4 -90 -9 -165 -10 -115 -2
-139 1 -144 13 -4 10 8 26 33 45 21 17 55 47 76 67 l39 37 121 4 c106 2 247
-2 254 -8z m-427 -1 c0 0 -56 -38 -125 -84 l-125 -83 -72 2 c-40 1 -77 6 -83
11 -6 5 -30 7 -55 4 -73 -6 -216 -9 -345 -6 -66 1 -257 -1 -425 -4 -168 -4
-501 -8 -740 -10 -239 -2 -459 -5 -487 -8 -29 -2 -53 -3 -53 -1 0 5 146 97
215 136 l60 34 485 5 c382 4 1750 7 1750 4z m-4648 -35 c-4 -4 -37 -32 -74
-63 l-68 -57 -2 36 c-4 78 -4 79 22 86 30 8 132 6 122 -2z m5088 -59 c0 -44
-17 -54 -81 -48 l-34 3 55 42 c30 24 56 43 58 43 1 0 2 -18 2 -40z m-2930
-143 c0 -2 -12 -14 -26 -28 -25 -22 -26 -23 -15 -2 9 18 19 26 39 32 1 1 2 0
2 -2z m-1170 -961 c0 -2 -7 -9 -15 -16 -13 -11 -14 -10 -9 4 5 14 24 23 24 12z
m239 -362 c-5 -60 -8 -125 -5 -144 5 -33 1 -40 -84 -129 -50 -52 -92 -92 -94
-90 -10 11 18 257 31 278 26 41 155 202 159 198 2 -2 -1 -53 -7 -113z m1 -319
c0 -63 -1 -65 -21 -55 -15 9 -24 8 -35 -1 -11 -9 -14 -8 -14 4 0 8 -5 17 -11
19 -11 4 59 96 74 97 4 1 7 -28 7 -64z"/>
<path d="M26808 17173 c-30 -5 -95 -86 -236 -300 l-79 -120 -8 -799 c-11
-1127 -26 -1855 -40 -1920 -4 -19 -1 -44 8 -65 l14 -35 166 -2 165 -3 74 98
c41 54 93 132 118 173 l43 74 2 166 c1 91 2 320 2 510 1 190 1 356 1 370 0 14
1 172 2 352 1 270 4 329 16 339 11 9 12 15 3 26 -9 10 -10 86 -5 291 11 400 8
697 -6 762 -17 78 -35 90 -133 88 -44 0 -92 -3 -107 -5z m184 -140 c-4 -70 -7
-80 -31 -98 -14 -11 -54 -44 -88 -72 -34 -29 -65 -53 -68 -53 -3 0 -5 28 -5
63 l0 63 63 60 c48 47 125 113 133 114 1 0 -1 -35 -4 -77z m-102 58 c0 -10
-73 -71 -85 -71 -6 0 3 57 12 73 6 10 73 9 73 -2z m102 -488 c-2 -164 -5 -338
-6 -388 -1 -49 -3 -119 -5 -155 l-1 -65 -91 -94 c-49 -51 -92 -92 -94 -89 -3
2 -2 212 2 467 l6 462 90 79 c49 44 92 80 96 80 3 0 5 -134 3 -297z m-252 10
c0 -14 -61 -115 -66 -110 -3 3 9 30 26 61 30 53 40 65 40 49z m224 -2061 c-15
-39 -126 -172 -143 -172 -11 0 -31 96 -31 149 0 48 6 59 119 212 11 16 11 20
-4 25 -13 5 -30 -7 -66 -47 l-48 -54 0 520 -1 520 93 109 92 110 3 -665 c2
-595 1 -668 -14 -707z m-394 728 c0 -5 -5 -10 -11 -10 -5 0 -7 5 -4 10 3 6 8
10 11 10 2 0 4 -4 4 -10z m160 -123 c0 -7 -7 -22 -15 -33 -13 -17 -14 -16 -4
14 11 33 19 41 19 19z m-4 -373 c-4 -9 -9 -15 -11 -12 -3 3 -3 13 1 22 4 9 9
15 11 12 3 -3 3 -13 -1 -22z m-156 6 c0 -5 -5 -10 -11 -10 -5 0 -7 5 -4 10 3
6 8 10 11 10 2 0 4 -4 4 -10z m395 -396 l0 -66 -38 5 c-21 3 -41 8 -44 10 -4
4 74 117 81 117 0 0 1 -30 1 -66z m-424 13 c-10 -9 -11 -8 -5 6 3 10 9 15 12
12 3 -3 0 -11 -7 -18z m181 -99 c-7 -7 -12 -8 -12 -2 0 14 12 26 19 19 2 -3
-1 -11 -7 -17z"/>
<path d="M24537 17139 c-10 -6 -35 -8 -55 -4 -55 9 -144 -40 -242 -131 -103
-98 -140 -167 -140 -265 0 -89 28 -165 81 -218 49 -49 94 -65 180 -66 56 0 73
4 115 30 62 39 113 105 172 225 43 88 47 101 47 170 0 64 -4 82 -28 123 -15
26 -39 55 -53 64 -18 11 -24 22 -20 37 10 37 -21 56 -57 35z m27 -135 c14 -15
26 -33 26 -40 0 -7 -39 -45 -87 -84 -113 -94 -131 -106 -144 -93 -7 7 13 32
62 76 68 62 80 87 41 87 -10 0 -35 -12 -55 -26 -21 -14 -41 -23 -44 -21 -8 9
40 67 81 98 50 36 85 37 120 3z m34 -180 c-18 -38 -56 -64 -103 -70 l-40 -5
75 72 c65 62 75 69 78 51 2 -12 -3 -34 -10 -48z"/>
<path d="M7000 15828 c-19 -5 -54 -13 -78 -18 -85 -19 -182 -80 -290 -185
-251 -241 -375 -491 -389 -780 -12 -250 50 -440 202 -618 61 -72 148 -122 261
-151 79 -21 119 -20 225 4 203 44 350 162 506 403 150 232 213 422 213 647 0
233 -53 395 -171 526 -79 88 -110 107 -243 149 -111 36 -170 41 -236 23z m298
-151 c39 -26 91 -70 117 -98 l47 -50 -39 -42 c-21 -23 -48 -55 -60 -70 l-22
-28 -47 36 c-59 46 -109 71 -167 85 -30 8 -47 18 -50 31 -3 10 -9 19 -14 19
-24 -1 -189 -131 -323 -255 -171 -158 -183 -167 -176 -133 3 13 10 61 17 108
14 98 7 89 184 232 61 48 119 96 130 107 87 79 169 113 267 108 61 -2 73 -7
136 -50z m-515 -75 c-112 -86 -121 -92 -93 -55 25 34 62 64 124 99 71 41 61
26 -31 -44z m745 -216 c25 -74 25 -81 20 -281 -3 -100 -11 -166 -27 -232 l-22
-92 -117 -108 c-133 -124 -241 -216 -272 -233 -19 -10 -20 -9 -14 14 5 23 3
26 -19 26 -14 0 -29 -5 -32 -10 -3 -6 -20 -17 -37 -26 -50 -26 -53 -2 -6 37
40 31 284 246 406 356 40 36 52 53 47 66 -10 26 -21 22 -81 -29 l-55 -47 35
51 c56 83 69 137 64 265 -3 92 -8 120 -26 155 l-23 43 32 37 c42 49 82 82 94
79 6 -2 20 -34 33 -71z m-516 12 c-7 -7 -12 -8 -12 -2 0 14 12 26 19 19 2 -3
-1 -11 -7 -17z m-259 -190 c-16 -44 -7 -219 13 -278 l19 -55 -80 -77 c-43 -42
-80 -76 -81 -75 -1 1 -14 27 -30 57 -20 40 -28 71 -29 115 -1 33 -7 70 -13 82
-7 12 -12 29 -12 38 0 18 194 215 211 215 6 0 7 -8 2 -22z m247 -43 c81 -42
143 -205 119 -312 l-13 -55 -45 6 c-145 17 -141 15 -195 119 -34 64 -35 70
-32 154 2 49 4 91 5 96 2 13 131 7 161 -8z m-147 -386 c23 -22 67 -54 98 -69
l57 -29 92 25 c51 14 94 24 96 22 3 -3 -244 -200 -309 -247 -29 -21 -75 8
-163 103 l-75 80 78 78 c43 43 79 78 81 78 1 0 22 -18 45 -41z m521 -210 c-16
-17 -38 -35 -49 -40 -11 -6 0 8 25 30 54 48 65 53 24 10z"/>
<path d="M11275 15824 c-38 -7 -86 -20 -105 -28 -19 -8 -53 -17 -74 -20 -93
-13 -257 -116 -393 -247 -118 -114 -268 -373 -314 -544 -19 -72 -21 -97 -16
-245 6 -186 19 -247 74 -354 103 -197 316 -309 615 -323 189 -9 333 20 505
103 66 31 76 40 121 109 65 99 160 291 167 336 3 20 19 56 35 80 37 55 37 70
1 144 -17 33 -33 73 -36 88 -7 33 -57 67 -98 67 -22 0 -40 -12 -73 -49 -38
-43 -114 -99 -114 -86 0 3 29 63 65 134 84 169 139 302 161 392 22 92 11 171
-41 276 -52 105 -125 150 -283 173 -84 12 -110 11 -197 -6z m270 -102 c92 -43
129 -73 161 -128 32 -54 43 -163 25 -231 -12 -42 -54 -103 -73 -103 -5 0 -54
-40 -109 -90 -126 -113 -239 -203 -309 -248 -52 -34 -57 -35 -144 -34 -141 2
-157 -18 -74 -93 28 -25 47 -49 42 -54 -5 -4 -49 -38 -97 -76 l-89 -68 -64 64
c-78 77 -129 175 -151 289 l-16 81 39 32 c21 18 82 71 135 120 53 48 99 87
102 87 3 0 -3 -21 -13 -47 -29 -79 -32 -100 -14 -117 24 -25 114 -19 244 14
63 17 123 30 133 30 55 0 253 174 243 213 -2 11 -1 30 4 43 8 19 5 28 -15 48
-14 14 -25 29 -25 35 0 5 -17 15 -37 21 -21 7 -42 16 -47 21 -6 5 -34 9 -63 9
-29 0 -53 4 -53 9 0 5 25 30 55 56 52 44 66 67 46 79 -5 3 -44 -22 -87 -55
-44 -34 -115 -85 -159 -114 -74 -49 -223 -172 -405 -335 l-73 -65 6 85 5 85
49 43 c131 117 350 294 460 372 50 34 155 60 233 57 49 -2 83 -11 135 -35z
m-475 -40 c-13 -9 -76 -54 -138 -100 -87 -63 -109 -75 -91 -51 52 69 99 107
170 137 84 36 94 38 59 14z m550 -521 c0 -5 -30 -35 -67 -67 l-68 -58 65 67
c68 70 70 72 70 58z m-1030 -251 c0 -5 -5 -10 -11 -10 -5 0 -7 5 -4 10 3 6 8
10 11 10 2 0 4 -4 4 -10z m1201 -74 l21 -38 -39 -41 c-188 -198 -254 -255
-284 -245 -6 2 29 45 76 96 78 84 93 112 63 112 -6 0 -49 -36 -96 -81 -108
-102 -181 -157 -218 -165 -30 -6 -193 11 -203 22 -8 8 126 135 179 170 26 17
68 32 115 40 93 16 178 58 274 135 81 64 76 64 112 -5z m6 -154 c-49 -49 -56
-36 -10 18 22 25 39 38 41 30 3 -7 -12 -28 -31 -48z m-564 19 c8 -8 -186 -181
-203 -181 -4 0 -13 7 -20 15 -7 9 -21 13 -35 9 -13 -3 -26 0 -31 7 -5 9 20 39
76 92 l83 79 61 -7 c34 -3 65 -10 69 -14z m-573 -31 c-6 -12 -14 -20 -17 -17
-2 3 1 14 8 26 17 26 24 19 9 -9z m71 -98 c-11 -21 -51 -58 -51 -48 0 5 9 21
21 37 22 32 46 41 30 11z m222 -337 c-9 -19 -23 -35 -30 -35 -16 0 -10 14 20
48 28 30 30 28 10 -13z m236 -25 c-13 -22 -27 -40 -31 -40 -10 0 -5 10 24 53
29 40 33 33 7 -13z"/>
<path d="M12370 15799 c-17 -24 -50 -75 -72 -114 -23 -38 -69 -116 -103 -172
l-63 -101 -6 -159 c-4 -87 -8 -320 -11 -518 -3 -198 -7 -418 -11 -490 -6 -121
-5 -132 14 -155 19 -24 27 -25 133 -28 62 -2 138 -1 168 3 50 6 61 12 98 52
23 25 67 93 96 152 63 123 68 150 72 386 2 88 6 248 10 355 7 195 7 195 39
255 37 69 62 85 146 92 49 5 64 2 94 -17 51 -31 81 -76 95 -143 14 -63 52
-117 83 -117 28 0 140 55 178 87 33 28 78 109 117 212 44 117 12 266 -73 340
-71 63 -200 111 -295 111 -99 0 -246 -69 -329 -155 -19 -19 -38 -35 -43 -35
-6 0 -8 32 -4 81 l6 80 -34 15 c-20 8 -87 17 -154 21 l-119 6 -32 -44z m120
-48 c0 -10 -51 -54 -56 -49 -1 2 0 15 3 31 4 20 11 27 29 27 13 0 24 -4 24 -9z
m142 -48 l4 -58 -60 -60 c-34 -33 -79 -74 -101 -92 l-41 -31 2 79 c2 91 6 98
104 175 75 60 87 58 92 -13z m596 3 c113 -54 115 -57 60 -113 l-45 -45 -74 37
-73 37 -56 -17 c-114 -35 -241 -123 -308 -213 -19 -26 -45 -58 -58 -72 -34
-38 -43 -109 -50 -390 l-6 -255 -66 -88 c-71 -94 -101 -120 -122 -107 -11 7
-11 16 -2 49 7 22 10 51 7 64 -5 18 12 47 84 141 50 65 91 122 91 127 0 13
-17 20 -33 13 -13 -5 -103 -106 -154 -173 -9 -13 -11 21 -9 155 2 94 7 178 12
187 5 9 49 60 98 113 66 71 86 98 76 104 -9 6 -25 -1 -46 -18 -17 -15 -53 -46
-80 -68 l-49 -42 0 112 c0 132 5 141 123 242 67 57 77 63 83 46 9 -23 35 -35
59 -27 10 3 36 30 59 59 91 121 215 188 336 183 45 -2 81 -12 143 -41z m145
-153 c3 -16 9 -36 12 -45 5 -12 -4 -24 -35 -43 -23 -15 -43 -25 -45 -23 -10
12 -25 49 -25 62 0 19 68 88 79 81 5 -2 11 -17 14 -32z m-1153 -638 c-7 -9
-15 -13 -18 -10 -3 2 1 11 8 20 7 9 15 13 18 10 3 -2 -1 -11 -8 -20z m390
-372 c0 -22 -8 -32 -36 -46 -23 -11 -33 -13 -28 -5 13 22 56 78 60 78 2 0 4
-12 4 -27z m-330 -353 c0 -5 -5 -10 -11 -10 -5 0 -7 5 -4 10 3 6 8 10 11 10 2
0 4 -4 4 -10z"/>
<path d="M24322 15720 c-79 -16 -135 -73 -217 -220 -26 -47 -56 -97 -67 -112
-49 -72 -59 -170 -64 -643 -7 -583 -6 -756 6 -785 l10 -25 153 1 c201 1 244 8
283 49 38 41 93 146 140 266 29 75 34 100 29 133 -10 62 -11 254 -1 788 11
577 19 532 -101 541 -43 3 -89 8 -103 11 -14 2 -44 1 -68 -4z m88 -97 c0 -8
-65 -63 -74 -63 -4 0 -6 16 -6 35 0 34 1 35 40 35 22 0 40 -3 40 -7z m116 -28
c3 -14 3 -40 -1 -58 -8 -38 -10 -83 -6 -192 2 -44 2 -86 2 -93 -1 -15 -167
-189 -194 -204 -17 -9 -18 -4 -11 104 4 68 13 125 22 143 8 17 46 61 84 99 65
65 79 88 59 100 -5 3 -37 -17 -72 -44 -62 -51 -78 -52 -79 -9 0 17 162 179
180 179 5 0 12 -11 16 -25z m-1 -578 c-2 -67 -7 -203 -11 -301 -5 -176 -6
-180 -34 -220 -31 -46 -87 -100 -110 -108 -8 -3 -25 -2 -37 3 -20 7 -23 16
-23 58 0 43 7 60 50 124 27 41 56 80 65 87 8 7 15 19 15 26 0 26 -33 14 -84
-30 l-51 -43 0 152 0 152 29 39 c48 63 178 194 188 188 5 -3 6 -60 3 -127z
m-24 -620 c-16 -16 -26 0 -10 19 9 11 15 12 17 4 2 -6 -1 -17 -7 -23z"/>
<path d="M19305 15695 c-44 -13 -111 -29 -150 -35 -170 -28 -356 -136 -495
-287 -70 -77 -197 -264 -248 -366 -59 -120 -84 -240 -86 -407 -1 -134 1 -150
25 -212 41 -105 88 -177 169 -258 115 -115 261 -176 465 -195 62 -5 257 19
328 41 10 3 17 0 17 -9 0 -37 121 -90 166 -73 9 3 48 9 87 12 40 3 75 8 80 11
17 10 47 84 67 164 11 46 29 104 39 129 40 95 45 178 45 812 l1 608 -30 29
c-29 29 -33 30 -185 41 -85 6 -168 13 -185 15 -16 2 -66 -7 -110 -20z m305
-48 c100 -3 133 -20 142 -72 4 -22 7 -118 7 -214 1 -150 -1 -177 -16 -193 -13
-14 -14 -21 -5 -30 8 -8 12 -69 12 -199 0 -174 -1 -188 -21 -213 -21 -26 -19
-64 2 -50 8 5 10 -16 8 -72 -4 -70 -8 -84 -37 -127 -31 -44 -103 -107 -124
-107 -5 0 -14 11 -20 25 -14 30 -1 77 38 137 30 47 15 59 -31 24 -18 -14 -36
-26 -40 -26 -3 0 -23 -16 -43 -36 -49 -48 -126 -91 -176 -100 -23 -3 -53 -13
-68 -20 -18 -9 -62 -14 -127 -14 -81 0 -113 5 -167 24 -79 29 -92 39 -74 60 7
9 10 23 6 31 -5 15 -9 14 -35 -1 -30 -18 -30 -18 -63 13 -18 17 -54 50 -81 73
-29 27 -59 68 -80 109 -32 65 -32 67 -30 204 0 76 4 148 7 160 6 20 109 103
276 222 l55 39 -34 -39 c-68 -78 -110 -217 -111 -368 0 -55 6 -84 31 -144 46
-108 73 -135 175 -172 97 -35 162 -39 245 -15 104 30 219 115 219 162 0 13 13
46 28 71 31 50 49 101 50 141 1 16 13 34 34 50 60 46 81 71 70 82 -8 8 -21 5
-44 -9 l-34 -20 4 196 4 197 -24 29 -25 29 -109 -13 c-159 -18 -249 -38 -312
-71 -55 -28 -85 -31 -49 -5 53 39 187 162 187 172 0 24 -20 23 -52 -5 -18 -15
-94 -73 -168 -129 -74 -56 -189 -146 -255 -201 -66 -55 -121 -96 -123 -91 -2
4 7 31 19 60 18 41 40 66 109 124 105 87 200 155 258 184 24 12 56 36 71 53
18 20 39 32 57 34 16 1 41 5 57 9 21 6 27 4 27 -9 0 -24 14 -20 84 22 60 36
65 37 142 35 43 -2 113 -4 154 -6z m-367 -476 c21 -5 41 -11 43 -14 11 -11 11
-165 0 -308 -11 -130 -17 -163 -32 -181 -46 -51 -155 -64 -232 -27 -63 31
-136 108 -156 165 -30 88 -12 240 33 282 76 70 234 108 344 83z m497 -782 c0
-26 -3 -29 -34 -29 -47 0 -52 13 -15 44 36 30 49 26 49 -15z m-1009 -32 c-13
-12 -20 -15 -16 -7 14 26 28 41 33 35 3 -3 -5 -16 -17 -28z m119 -48 c0 -5 -7
-9 -15 -9 -15 0 -20 12 -9 23 8 8 24 -1 24 -14z m148 -28 c-4 -11 -84 -81 -92
-81 -7 0 20 68 34 85 10 12 63 8 58 -4z m692 4 c-7 -9 -15 -13 -17 -11 -7 7 7
26 19 26 6 0 6 -6 -2 -15z m-1118 -57 c-7 -7 -12 -8 -12 -2 0 14 12 26 19 19
2 -3 -1 -11 -7 -17z m117 -47 c-20 -36 -39 -53 -39 -35 0 9 55 83 59 79 1 -2
-7 -22 -20 -44z m96 -90 c-3 -6 -11 -11 -17 -11 -6 0 -6 6 2 15 14 17 26 13
15 -4z"/>
<path d="M18904 14526 c-22 -18 -26 -28 -18 -36 9 -9 19 -8 43 4 34 18 38 28
17 45 -11 9 -20 6 -42 -13z"/>
<path d="M25750 15695 c-47 -14 -122 -31 -167 -39 -220 -39 -436 -200 -605
-450 -141 -210 -189 -335 -207 -537 -14 -168 9 -275 88 -408 110 -185 295
-295 541 -322 85 -9 113 -8 216 10 66 11 127 23 136 26 12 5 21 -2 32 -23 27
-51 91 -64 246 -48 90 10 99 18 130 126 11 41 34 116 50 165 16 50 34 128 40
175 6 50 10 327 10 673 l0 589 -29 29 c-19 18 -40 29 -58 29 -37 1 -247 17
-298 24 -26 3 -69 -3 -125 -19z m305 -49 c39 -1 86 -9 106 -18 l37 -16 7 -206
c7 -183 6 -209 -9 -225 -18 -20 -22 -51 -6 -51 6 0 10 -68 10 -184 0 -178 -1
-184 -25 -219 -22 -33 -23 -37 -7 -46 24 -14 18 -143 -9 -188 -28 -45 -119
-124 -138 -121 -30 6 -26 72 8 135 34 61 37 73 20 73 -12 0 -45 -24 -117 -85
-27 -23 -64 -51 -84 -63 -102 -63 -327 -90 -446 -53 -37 12 -75 28 -86 36 -17
13 -17 15 -2 30 32 33 10 55 -29 29 -24 -16 -26 -15 -87 37 -34 30 -73 65 -85
79 -63 71 -102 199 -88 287 4 27 8 71 9 98 2 28 3 55 4 62 2 11 282 226 322
248 8 4 -1 -10 -21 -31 -67 -71 -93 -145 -109 -305 l-11 -107 31 -80 c49 -128
71 -151 178 -191 81 -30 99 -33 165 -29 88 6 174 42 255 108 38 32 51 48 46
62 -3 11 9 41 31 78 22 37 39 81 45 117 6 34 16 61 25 66 32 18 85 69 85 83 0
20 -17 17 -53 -8 l-30 -22 6 180 c7 183 1 240 -29 265 -12 10 -37 10 -126 0
-187 -20 -247 -36 -372 -100 -23 -11 10 20 98 94 52 44 97 85 100 92 3 6 -1
17 -9 23 -11 9 -19 6 -36 -11 -12 -12 -83 -68 -158 -124 -75 -56 -191 -147
-259 -204 -68 -56 -126 -100 -129 -97 -12 12 32 102 66 134 63 58 264 207 314
231 26 13 52 31 57 42 13 23 46 41 85 46 16 2 37 6 46 8 10 3 19 -1 23 -10 8
-22 22 -19 74 17 54 37 104 49 182 41 30 -2 87 -6 125 -7z m-365 -477 l50 -11
1 -81 c1 -45 1 -85 0 -89 0 -4 -3 -33 -5 -65 -20 -264 -23 -273 -94 -293 -94
-26 -177 -3 -256 70 -64 59 -86 110 -86 198 0 108 16 167 53 198 81 68 219 98
337 73z m493 -753 c3 -8 3 -24 0 -35 -4 -16 -13 -21 -39 -21 -41 0 -44 16 -6
47 32 26 38 28 45 9z m-1003 -56 c-6 -12 -14 -19 -17 -17 -2 3 1 15 7 27 6 12
14 19 17 17 2 -3 -1 -15 -7 -27z m114 -39 c3 -5 -1 -14 -9 -21 -13 -10 -15 -9
-15 9 0 21 14 28 24 12z m155 -37 c4 -3 -64 -65 -86 -78 -12 -6 -14 -4 -8 15
4 13 14 36 22 52 11 23 18 26 41 21 15 -4 29 -8 31 -10z m691 7 c0 -5 -7 -14
-15 -21 -16 -14 -18 -10 -9 14 6 17 24 22 24 7z m-1116 -56 c-7 -16 -24 -21
-24 -6 0 8 7 13 27 20 1 1 0 -6 -3 -14z m122 -32 c-20 -38 -45 -70 -46 -58 0
11 48 85 56 85 2 0 -2 -12 -10 -27z m84 -113 c0 -5 -4 -10 -10 -10 -5 0 -10 5
-10 10 0 6 5 10 10 10 6 0 10 -4 10 -10z"/>
<path d="M25351 14531 c-23 -18 -25 -51 -2 -51 21 0 52 36 46 53 -9 21 -14 21
-44 -2z"/>
<path d="M21703 15695 c-34 -7 -70 -18 -80 -23 -10 -5 -38 -13 -63 -17 -163
-27 -409 -212 -533 -400 -73 -112 -170 -309 -194 -395 -23 -82 -22 -317 1
-433 49 -249 227 -414 507 -470 238 -48 466 -19 679 86 55 27 71 42 111 100
64 96 155 275 164 322 7 42 38 110 55 120 18 11 11 76 -15 124 -13 25 -27 59
-30 74 -8 40 -44 73 -88 81 -36 7 -40 5 -89 -49 -42 -46 -108 -96 -108 -82 0
2 38 82 84 178 155 318 176 423 119 570 -16 42 -42 92 -56 111 -73 95 -283
142 -464 103z m267 -88 c78 -32 146 -82 178 -129 24 -36 27 -53 30 -136 5
-116 -13 -174 -61 -199 -18 -9 -70 -51 -117 -94 -114 -105 -263 -224 -325
-260 -45 -26 -57 -28 -133 -26 -85 3 -122 -8 -122 -38 0 -7 24 -34 53 -60 46
-41 50 -47 34 -56 -9 -6 -53 -37 -96 -70 -44 -32 -83 -59 -88 -59 -6 0 -38 29
-72 65 -67 70 -120 169 -140 263 -13 63 -14 112 -2 112 4 0 63 50 130 111 67
61 124 109 126 107 3 -2 -5 -35 -18 -72 l-22 -68 25 -20 c21 -17 33 -19 85
-13 33 3 103 17 155 31 52 13 102 24 112 24 64 0 258 161 258 214 0 14 4 36
10 51 8 20 7 27 -5 32 -9 3 -22 17 -29 30 -7 14 -30 32 -52 40 -40 15 -51 18
-118 28 l-39 6 58 59 c49 50 63 80 37 80 -4 0 -51 -33 -104 -73 -53 -41 -120
-89 -150 -108 -48 -30 -324 -262 -422 -354 -21 -20 -40 -34 -42 -32 -3 2 -1
37 2 78 7 70 10 76 53 122 53 57 174 160 321 273 188 146 222 161 360 163 57
0 89 -5 130 -22z m-460 -55 c-13 -9 -76 -55 -139 -100 -88 -64 -108 -76 -85
-49 16 20 37 47 47 61 10 14 55 44 100 66 85 41 120 51 77 22z m250 -402 c0
-5 -5 -10 -11 -10 -5 0 -7 5 -4 10 3 6 8 10 11 10 2 0 4 -4 4 -10z m299 -133
c-2 -2 -31 -25 -64 -52 l-60 -48 60 62 c33 34 61 57 63 51 2 -6 2 -12 1 -13z
m-1027 -239 c-7 -7 -12 -8 -12 -2 0 14 12 26 19 19 2 -3 -1 -11 -7 -17z m1196
-47 c12 -21 22 -46 22 -55 0 -8 -55 -71 -122 -140 -113 -113 -175 -162 -198
-154 -5 2 29 44 75 93 46 50 84 95 85 102 1 32 -26 16 -110 -62 -51 -47 -116
-104 -146 -127 l-54 -41 -98 5 c-147 7 -149 11 -55 97 100 93 152 123 225 132
77 9 186 62 273 132 39 31 73 57 76 57 3 0 15 -17 27 -39z m36 -148 c-19 -30
-54 -62 -67 -63 -5 0 8 20 29 45 40 49 67 62 38 18z m-621 1 c26 -3 47 -9 46
-13 0 -3 -48 -46 -106 -94 -100 -83 -106 -87 -124 -71 -11 10 -27 14 -39 11
-34 -9 -36 21 -4 55 58 62 146 129 162 124 10 -3 38 -8 65 -12z m-533 -33 c-5
-11 -15 -23 -22 -27 -7 -5 -8 -2 -3 7 21 37 44 55 25 20z m40 -135 c-33 -32
-32 -24 4 28 12 19 21 25 24 17 2 -7 -10 -27 -28 -45z m253 -301 c-9 -19 -23
-35 -31 -35 -15 0 -12 5 27 53 21 26 23 21 4 -18z m243 -12 c-20 -38 -45 -70
-46 -58 0 11 48 85 56 85 2 0 -2 -12 -10 -27z"/>
<path d="M22803 15654 c-22 -33 -68 -108 -103 -169 -34 -60 -76 -130 -93 -154
l-30 -43 -8 -357 c-16 -691 -18 -943 -9 -961 21 -39 125 -50 290 -30 72 8 77
10 117 54 58 65 153 253 153 305 0 22 4 51 10 66 6 16 6 49 1 88 -5 34 -6 67
-2 72 3 6 7 71 7 145 1 74 4 197 8 272 5 130 7 141 37 199 38 72 68 89 156 89
94 0 164 -59 177 -150 8 -55 37 -107 69 -121 20 -9 36 -4 103 30 43 22 88 48
100 58 22 19 71 109 105 195 61 154 -4 333 -148 406 -100 51 -232 66 -329 37
-59 -17 -155 -77 -219 -136 l-45 -42 0 86 c0 109 0 109 -176 115 l-132 5 -39
-59z m125 -22 c9 -6 6 -14 -13 -32 -29 -28 -43 -20 -27 15 12 27 19 30 40 17z
m152 -60 l0 -68 -87 -75 c-49 -42 -93 -78 -99 -82 -8 -4 -11 17 -12 68 -1 88
9 104 109 180 83 62 89 60 89 -23z m575 17 c42 -17 88 -41 102 -53 l24 -21
-45 -45 -46 -44 -52 23 c-104 45 -100 45 -158 28 -62 -18 -163 -76 -221 -125
-21 -18 -66 -68 -101 -110 -84 -104 -82 -91 -86 -498 l-2 -182 -36 -53 c-84
-123 -142 -177 -166 -153 -3 3 0 26 8 51 9 28 10 51 5 62 -7 12 11 43 79 131
84 109 101 142 81 154 -11 7 -43 -23 -121 -118 l-65 -79 -3 57 c-2 33 2 64 8
71 8 9 9 33 5 69 -4 31 -4 81 0 112 6 53 11 61 96 152 49 53 89 103 89 110 0
25 -27 10 -104 -58 -44 -39 -81 -69 -82 -67 -2 2 0 18 5 35 5 18 7 66 4 107
-6 93 7 118 114 210 73 62 77 64 90 45 9 -12 26 -20 43 -20 23 0 38 12 79 64
77 96 155 148 261 173 71 16 100 12 195 -28z m174 -212 c1 -15 -51 -57 -71
-57 -4 0 -14 13 -23 30 -15 30 -15 30 27 76 l43 47 12 -39 c6 -22 12 -47 12
-57z m-1163 -589 c-11 -15 -16 -18 -16 -7 0 16 21 42 28 34 2 -2 -3 -14 -12
-27z m394 -372 c0 -18 -9 -29 -32 -40 -17 -9 -33 -15 -35 -13 -5 5 51 76 60
77 4 0 7 -11 7 -24z m-338 -358 c-7 -7 -12 -8 -12 -2 0 14 12 26 19 19 2 -3
-1 -11 -7 -17z"/>
</g>
</svg>
